<?xml version="1.0" standalone="no"?>
<!DOCTYPE svg PUBLIC "-//W3C//DTD SVG 20010904//EN"
 "http://www.w3.org/TR/2001/REC-SVG-20010904/DTD/svg10.dtd">
<svg version="1.0" xmlns="http://www.w3.org/2000/svg"
 width="260.000000pt" height="260.000000pt" viewBox="0 0 260.000000 260.000000"
 preserveAspectRatio="xMidYMid meet">
<metadata>
Created by potrace 1.11, written by Peter Selinger 2001-2013
</metadata>
<g transform="translate(0.000000,260.000000) scale(0.100000,-0.100000)"
fill="#000000" stroke="none">
<path d="M1080 2401 c0 -5 36 -46 80 -90 44 -45 80 -87 80 -93 0 -6 11 -21 25
-34 14 -13 25 -28 25 -34 0 -5 5 -10 10 -10 6 0 10 -6 10 -13 0 -8 11 -24 25
-37 14 -13 25 -29 25 -37 0 -7 5 -13 10 -13 6 0 10 -6 10 -14 0 -8 3 -16 8
-18 10 -4 54 -75 76 -120 9 -21 21 -38 26 -38 6 0 10 -6 10 -12 0 -7 16 -44
35 -83 53 -105 47 -169 -22 -245 -30 -34 -53 -50 -69 -50 -28 0 -104 31 -104
42 0 5 -10 8 -23 8 -13 0 -27 4 -33 8 -5 5 -40 22 -79 37 -38 16 -74 32 -79
37 -6 4 -20 8 -32 8 -13 0 -25 4 -29 9 -3 5 -29 17 -58 26 -28 9 -60 20 -69
26 -10 5 -27 9 -38 9 -11 0 -28 4 -38 9 -46 23 -95 41 -112 41 -10 0 -22 5
-25 10 -3 6 -17 10 -31 10 -13 0 -24 5 -24 10 0 6 -11 10 -25 10 -14 0 -28 7
-31 15 -4 8 -12 15 -19 15 -20 0 -129 60 -138 76 -4 8 -17 14 -27 14 -11 0
-20 5 -20 10 0 6 -8 10 -18 10 -10 0 -22 4 -27 9 -18 16 -104 39 -124 34 -34
-9 -28 -54 10 -75 17 -10 37 -18 45 -18 8 0 14 -4 14 -10 0 -5 9 -10 19 -10
11 0 22 -4 26 -9 3 -6 31 -22 63 -37 31 -16 59 -31 62 -35 3 -3 15 -9 28 -13
12 -4 22 -12 22 -17 0 -5 7 -9 16 -9 9 0 27 -9 41 -20 14 -11 32 -20 39 -20 8
0 14 -5 14 -10 0 -6 8 -14 18 -17 29 -11 137 -76 140 -85 2 -4 10 -8 18 -8 8
0 14 -4 14 -10 0 -5 5 -10 10 -10 26 0 140 -88 140 -108 0 -15 -25 -21 -41
-11 -8 5 -42 9 -76 9 -34 0 -65 5 -68 10 -3 6 -24 10 -45 10 -21 0 -42 5 -45
10 -3 6 -16 10 -28 10 -24 1 -123 33 -134 44 -3 3 -23 6 -43 6 -20 0 -40 4
-46 9 -12 12 -73 20 -202 27 -110 7 -146 -2 -155 -36 -6 -23 16 -50 41 -50 11
0 23 -4 27 -9 3 -5 29 -17 58 -26 28 -9 60 -20 69 -26 10 -5 29 -9 42 -9 14 0
28 -4 31 -10 3 -5 18 -10 32 -10 14 0 39 -6 56 -14 18 -8 50 -17 72 -20 22 -3
60 -11 85 -17 25 -6 61 -13 80 -16 19 -3 40 -9 46 -14 6 -5 33 -14 60 -20 27
-5 69 -15 94 -20 25 -5 57 -12 73 -16 15 -3 30 -9 33 -14 3 -5 16 -9 28 -9 13
0 29 -7 36 -15 7 -8 18 -15 25 -15 20 0 127 -57 155 -82 14 -13 42 -36 64 -52
46 -34 68 -82 60 -128 -8 -43 -36 -108 -46 -108 -4 0 -8 -7 -8 -15 0 -9 -11
-28 -25 -43 -14 -15 -25 -30 -25 -35 0 -10 -209 -217 -219 -217 -5 0 -24 -14
-42 -30 -19 -17 -51 -40 -71 -52 -21 -12 -38 -25 -38 -30 0 -4 -4 -8 -10 -8
-5 0 -41 -20 -80 -45 -39 -25 -75 -45 -80 -45 -6 0 -10 -4 -10 -9 0 -5 -9 -12
-19 -16 -26 -8 -33 -31 -18 -55 16 -26 42 -25 101 5 27 14 55 25 63 25 7 0 13
5 13 10 0 6 13 10 28 10 16 0 32 3 36 7 17 17 197 50 448 81 32 4 63 13 70 20
7 7 29 12 49 12 21 0 41 5 44 10 3 6 17 10 30 10 13 0 27 4 30 10 3 5 17 10
31 10 13 0 24 4 24 9 0 5 9 13 20 16 20 6 110 93 110 106 0 4 21 31 48 60 48
53 56 62 107 126 17 20 40 46 53 57 13 12 30 35 38 52 23 48 85 77 194 91 52
7 115 12 139 12 96 2 168 50 157 106 -4 16 -13 33 -21 38 -8 4 -15 14 -15 20
0 16 -102 117 -117 117 -7 0 -16 6 -20 13 -4 6 -39 28 -77 47 -38 19 -88 52
-111 73 l-41 38 25 52 c14 29 29 54 33 55 5 2 8 14 8 27 0 13 5 27 10 30 6 3
10 33 10 66 l0 60 -99 97 c-104 102 -112 109 -176 157 -21 17 -47 37 -56 45
-32 29 -197 140 -208 140 -6 0 -11 4 -11 8 0 9 -117 82 -131 82 -5 0 -9 4 -9
9 0 5 -12 16 -27 24 -56 29 -79 42 -110 65 -17 12 -36 22 -42 22 -6 0 -11 4
-11 8 0 5 -18 15 -41 22 -23 8 -43 20 -46 27 -6 15 -143 19 -143 4z m210 -124
c0 -8 10 -19 23 -25 28 -15 61 -35 67 -43 12 -13 118 -79 127 -79 6 0 13 -7
17 -15 3 -8 12 -15 21 -15 8 0 15 -4 15 -8 0 -4 16 -14 35 -21 19 -7 35 -16
35 -21 0 -4 11 -11 25 -14 14 -4 25 -11 25 -16 0 -6 7 -10 15 -10 8 0 15 -4
15 -10 0 -5 9 -10 20 -10 11 0 20 -4 20 -9 0 -5 16 -16 35 -25 19 -9 35 -21
35 -26 0 -6 5 -10 12 -10 15 0 164 -115 201 -154 79 -84 109 -159 84 -206 -8
-14 -18 -34 -24 -45 -5 -11 -18 -34 -27 -52 -25 -49 -21 -100 11 -134 16 -16
33 -29 39 -29 7 0 25 -7 40 -15 16 -8 37 -15 47 -15 9 0 17 -4 17 -10 0 -5 7
-10 15 -10 8 0 25 -6 38 -12 33 -19 127 -118 127 -134 0 -8 5 -14 10 -14 6 0
10 -13 10 -30 0 -35 -6 -37 -30 -10 -9 11 -43 31 -74 45 -75 33 -142 33 -222
-1 -63 -27 -71 -36 -94 -109 -15 -48 -72 -169 -82 -173 -5 -2 -8 -9 -8 -15 0
-19 -94 -126 -146 -167 -46 -36 -121 -87 -144 -97 -82 -36 -99 -43 -109 -43
-6 0 -11 -4 -11 -10 0 -5 -9 -10 -20 -10 -11 0 -28 -4 -38 -9 -28 -14 -87 -31
-108 -31 -11 0 -29 -7 -40 -15 -10 -8 -33 -15 -51 -15 -17 0 -35 -4 -38 -10
-3 -5 -19 -10 -34 -10 -15 0 -31 -3 -35 -7 -13 -14 -101 -32 -151 -32 -27 0
-43 3 -35 6 8 3 34 21 57 39 23 19 44 34 47 34 16 0 166 145 166 160 0 5 4 10
9 10 4 0 21 19 36 42 15 23 39 54 52 67 12 14 23 31 23 38 0 7 3 13 8 13 4 0
21 26 37 58 17 31 33 58 38 60 4 2 7 15 7 28 0 13 5 33 12 44 10 15 9 25 -2
47 -36 70 -110 152 -137 153 -7 0 -13 4 -13 9 0 11 -98 61 -121 61 -10 0 -19
5 -19 10 0 6 -15 10 -33 10 -18 0 -38 5 -44 11 -12 12 -68 26 -136 36 -20 3
-40 9 -43 14 -3 5 -22 9 -42 9 -20 0 -46 7 -56 15 -11 8 -32 15 -47 15 -15 0
-31 5 -34 10 -3 6 -22 10 -41 10 -19 0 -34 5 -34 10 0 6 -11 10 -25 10 -14 0
-25 5 -25 10 0 6 -9 10 -20 10 -11 0 -20 5 -20 11 0 7 10 9 28 4 15 -3 45 -9
67 -12 22 -3 44 -9 49 -14 6 -5 27 -9 47 -9 20 0 56 -7 79 -15 23 -8 75 -15
115 -15 88 0 111 17 109 85 -1 50 -31 84 -101 116 -23 10 -45 23 -48 29 -3 5
-13 10 -21 10 -18 0 -49 28 -40 37 3 4 16 2 29 -4 12 -6 38 -18 57 -27 19 -9
42 -20 50 -25 19 -11 54 -25 113 -47 26 -9 50 -21 53 -25 3 -5 16 -9 30 -9 13
0 24 -4 24 -10 0 -5 13 -10 28 -10 15 0 32 -4 38 -10 5 -5 54 -19 109 -30 54
-12 102 -23 106 -26 4 -2 23 3 42 12 25 12 41 30 56 63 11 26 21 55 21 63 0 9
6 18 12 20 9 3 14 34 17 93 2 70 -1 97 -14 125 -43 87 -59 116 -71 131 -8 8
-14 19 -14 23 0 12 -62 99 -91 127 -14 15 -41 49 -60 75 -18 27 -39 53 -46 57
-7 4 -13 15 -13 22 0 8 -4 15 -8 15 -11 0 -43 56 -35 64 11 10 23 7 23 -7z
m1015 -1231 c48 -39 31 -45 -157 -62 -73 -7 -87 3 -40 27 15 8 29 17 32 20 3
3 19 13 35 21 46 24 95 22 130 -6z"/>
</g>
</svg>
